<svg width="29" height="29" viewBox="0 0 29 29" fill="none" xmlns="http://www.w3.org/2000/svg">
<path d="M23.5625 3.62492H22.6562V2.74416C22.6562 2.25648 22.2813 1.83791 21.7936 1.81355C21.6711 1.80765 21.5486 1.82668 21.4337 1.8695C21.3187 1.91232 21.2136 1.97804 21.1248 2.06267C21.036 2.1473 20.9653 2.24907 20.917 2.36183C20.8687 2.4746 20.8438 2.59599 20.8438 2.71867V3.62492H8.15625V2.74416C8.15625 2.25648 7.78129 1.83791 7.29361 1.81355C7.17108 1.80765 7.04862 1.82668 6.93366 1.8695C6.8187 1.91232 6.71364 1.97804 6.62482 2.06267C6.53601 2.1473 6.46531 2.24907 6.41699 2.36183C6.36868 2.4746 6.34376 2.59599 6.34375 2.71867V3.62492H5.4375C4.47609 3.62492 3.55406 4.00684 2.87424 4.68666C2.19442 5.36647 1.8125 6.28851 1.8125 7.24992V7.92961C1.8125 7.98969 1.83637 8.04732 1.87886 8.08981C1.92135 8.1323 1.97897 8.15617 2.03906 8.15617H26.9609C27.021 8.15617 27.0787 8.1323 27.1211 8.08981C27.1636 8.04732 27.1875 7.98969 27.1875 7.92961V7.24992C27.1875 6.28851 26.8056 5.36647 26.1258 4.68666C25.4459 4.00684 24.5239 3.62492 23.5625 3.62492ZM26.9609 9.96867H2.03906C1.97897 9.96867 1.92135 9.99254 1.87886 10.035C1.83637 10.0775 1.8125 10.1351 1.8125 10.1952V23.5624C1.8125 24.5238 2.19442 25.4459 2.87424 26.1257C3.55406 26.8055 4.47609 27.1874 5.4375 27.1874H23.5625C24.5239 27.1874 25.4459 26.8055 26.1258 26.1257C26.8056 25.4459 27.1875 24.5238 27.1875 23.5624V10.1952C27.1875 10.1351 27.1636 10.0775 27.1211 10.035C27.0787 9.99254 27.021 9.96867 26.9609 9.96867ZM13.57 22.7185C12.8806 23.2628 11.9415 23.5624 10.9248 23.5624C9.34627 23.5624 8.17891 22.5338 7.65895 21.6536C7.53652 21.4466 7.50133 21.1995 7.56114 20.9665C7.62094 20.7336 7.77083 20.5339 7.97783 20.4115C8.18484 20.2891 8.432 20.2539 8.66494 20.3137C8.89788 20.3735 9.09753 20.5234 9.21996 20.7304C9.28113 20.8346 9.8515 21.7499 10.9248 21.7499C11.8685 21.7499 12.9707 21.337 12.9707 20.1742C12.9707 19.8202 12.9016 19.3274 12.5742 18.9915C12.0905 18.4965 11.2856 18.2739 10.8688 18.2739C10.6284 18.2739 10.3979 18.1784 10.228 18.0084C10.058 17.8385 9.96252 17.608 9.96252 17.3676C9.96252 17.1273 10.058 16.8968 10.228 16.7268C10.3979 16.5569 10.6284 16.4614 10.8688 16.4614C11.1435 16.4614 11.8549 16.3141 12.3006 15.8582C12.4212 15.7396 12.5164 15.5976 12.5804 15.4411C12.6444 15.2845 12.6758 15.1165 12.6728 14.9474C12.6728 13.6316 11.0512 13.5937 10.8665 13.5937C9.88436 13.5937 9.51846 14.1946 9.50316 14.2201C9.44429 14.3257 9.36489 14.4184 9.26964 14.4928C9.17439 14.5672 9.06522 14.6218 8.94855 14.6534C8.83187 14.685 8.71006 14.6929 8.59028 14.6768C8.4705 14.6606 8.35517 14.6206 8.25107 14.5591C8.14698 14.4977 8.05623 14.4161 7.98416 14.319C7.91209 14.222 7.86016 14.1115 7.83143 13.9941C7.80269 13.8767 7.79774 13.7547 7.81685 13.6354C7.83596 13.516 7.87876 13.4017 7.94271 13.2991C8.37545 12.5628 9.37119 11.7812 10.8665 11.7812C11.7977 11.7812 12.6654 12.0513 13.3094 12.5413C14.0678 13.119 14.4853 13.9732 14.4853 14.9474C14.4878 15.3513 14.4104 15.7517 14.2573 16.1255C14.1043 16.4993 13.8788 16.839 13.5938 17.1252C13.5286 17.192 13.4601 17.2544 13.3904 17.315C13.5606 17.4379 13.7201 17.5749 13.8673 17.7245C14.4654 18.3362 14.7815 19.183 14.7815 20.1742C14.7832 21.1971 14.3522 22.1005 13.57 22.7185ZM20.8438 22.4296C20.8438 22.67 20.7483 22.9005 20.5783 23.0704C20.4084 23.2404 20.1779 23.3359 19.9375 23.3359C19.6971 23.3359 19.4666 23.2404 19.2967 23.0704C19.1267 22.9005 19.0312 22.67 19.0312 22.4296V14.5163L17.7563 15.456C17.6605 15.5267 17.5517 15.5778 17.4361 15.6064C17.3206 15.635 17.2005 15.6406 17.0828 15.6228C16.9651 15.605 16.852 15.5643 16.7501 15.5028C16.6482 15.4413 16.5593 15.3604 16.4887 15.2646C16.418 15.1688 16.3669 15.06 16.3383 14.9444C16.3096 14.8289 16.3041 14.7088 16.3218 14.5911C16.3396 14.4734 16.3804 14.3603 16.4419 14.2584C16.5033 14.1565 16.5843 14.0676 16.6801 13.9969L19.1394 12.1844C19.2952 12.0697 19.4835 12.0078 19.677 12.0077H19.9375C20.1779 12.0077 20.4084 12.1032 20.5783 12.2732C20.7483 12.4431 20.8438 12.6736 20.8438 12.914V22.4296Z" fill="#FF4F5A"/>
</svg>
