<svg width="29" height="29" viewBox="0 0 29 29" fill="none" xmlns="http://www.w3.org/2000/svg">
<path d="M23.5625 3.62498H22.6562V2.74422C22.6562 2.25654 22.2813 1.83797 21.7936 1.81361C21.6711 1.80771 21.5486 1.82674 21.4337 1.86956C21.3187 1.91239 21.2136 1.9781 21.1248 2.06273C21.036 2.14736 20.9653 2.24913 20.917 2.3619C20.8687 2.47466 20.8438 2.59605 20.8438 2.71873V3.62498H8.15625V2.74422C8.15625 2.25654 7.78129 1.83797 7.29361 1.81361C7.17108 1.80771 7.04862 1.82674 6.93366 1.86956C6.8187 1.91239 6.71364 1.9781 6.62482 2.06273C6.53601 2.14736 6.46531 2.24913 6.41699 2.3619C6.36868 2.47466 6.34376 2.59605 6.34375 2.71873V3.62498H5.4375C4.47609 3.62498 3.55406 4.0069 2.87424 4.68672C2.19442 5.36654 1.8125 6.28857 1.8125 7.24998V7.92967C1.8125 7.98975 1.83637 8.04738 1.87886 8.08987C1.92135 8.13236 1.97897 8.15623 2.03906 8.15623H26.9609C27.021 8.15623 27.0787 8.13236 27.1211 8.08987C27.1636 8.04738 27.1875 7.98975 27.1875 7.92967V7.24998C27.1875 6.28857 26.8056 5.36654 26.1258 4.68672C25.4459 4.0069 24.5239 3.62498 23.5625 3.62498ZM26.9609 9.96873H2.03906C1.97897 9.96873 1.92135 9.9926 1.87886 10.0351C1.83637 10.0776 1.8125 10.1352 1.8125 10.1953V23.5625C1.8125 24.5239 2.19442 25.4459 2.87424 26.1257C3.55406 26.8056 4.47609 27.1875 5.4375 27.1875H23.5625C24.5239 27.1875 25.4459 26.8056 26.1258 26.1257C26.8056 25.4459 27.1875 24.5239 27.1875 23.5625V10.1953C27.1875 10.1352 27.1636 10.0776 27.1211 10.0351C27.0787 9.9926 27.021 9.96873 26.9609 9.96873ZM13.57 22.7185C12.8806 23.2629 11.9415 23.5625 10.9248 23.5625C9.34627 23.5625 8.17891 22.5339 7.65895 21.6537C7.53652 21.4467 7.50133 21.1995 7.56114 20.9666C7.62094 20.7336 7.77083 20.534 7.97783 20.4116C8.18484 20.2891 8.432 20.2539 8.66494 20.3138C8.89788 20.3736 9.09753 20.5234 9.21996 20.7304C9.28113 20.8347 9.8515 21.75 10.9248 21.75C11.8685 21.75 12.9707 21.3371 12.9707 20.1742C12.9707 19.8202 12.9016 19.3275 12.5742 18.9916C12.0905 18.4965 11.2856 18.2739 10.8688 18.2739C10.6284 18.2739 10.3979 18.1785 10.228 18.0085C10.058 17.8386 9.96252 17.608 9.96252 17.3677C9.96252 17.1273 10.058 16.8968 10.228 16.7269C10.3979 16.5569 10.6284 16.4614 10.8688 16.4614C11.1435 16.4614 11.8549 16.3142 12.3006 15.8582C12.4212 15.7396 12.5164 15.5977 12.5804 15.4411C12.6444 15.2845 12.6758 15.1166 12.6728 14.9474C12.6728 13.6317 11.0512 13.5937 10.8665 13.5937C9.88436 13.5937 9.51846 14.1947 9.50316 14.2202C9.44429 14.3257 9.36489 14.4185 9.26964 14.4929C9.17439 14.5673 9.06522 14.6219 8.94855 14.6535C8.83187 14.6851 8.71006 14.693 8.59028 14.6768C8.4705 14.6606 8.35517 14.6206 8.25107 14.5592C8.14698 14.4978 8.05623 14.4161 7.98416 14.3191C7.91209 14.222 7.86016 14.1116 7.83143 13.9942C7.80269 13.8768 7.79774 13.7548 7.81685 13.6354C7.83596 13.5161 7.87876 13.4018 7.94271 13.2992C8.37545 12.5629 9.37119 11.7812 10.8665 11.7812C11.7977 11.7812 12.6654 12.0514 13.3094 12.5413C14.0678 13.1191 14.4853 13.9732 14.4853 14.9474C14.4878 15.3513 14.4104 15.7517 14.2573 16.1255C14.1043 16.4993 13.8788 16.8391 13.5938 17.1253C13.5286 17.1921 13.4601 17.2544 13.3904 17.315C13.5606 17.4379 13.7201 17.5749 13.8673 17.7245C14.4654 18.3362 14.7815 19.183 14.7815 20.1742C14.7832 21.1972 14.3522 22.1006 13.57 22.7185ZM20.8438 22.4297C20.8438 22.67 20.7483 22.9005 20.5783 23.0705C20.4084 23.2404 20.1779 23.3359 19.9375 23.3359C19.6971 23.3359 19.4666 23.2404 19.2967 23.0705C19.1267 22.9005 19.0312 22.67 19.0312 22.4297V14.5164L17.7563 15.4561C17.6605 15.5267 17.5517 15.5778 17.4361 15.6065C17.3206 15.6351 17.2005 15.6407 17.0828 15.6229C16.9651 15.6051 16.852 15.5643 16.7501 15.5028C16.6482 15.4414 16.5593 15.3604 16.4887 15.2646C16.418 15.1688 16.3669 15.06 16.3383 14.9445C16.3096 14.8289 16.3041 14.7089 16.3218 14.5912C16.3396 14.4735 16.3804 14.3604 16.4419 14.2585C16.5033 14.1565 16.5843 14.0677 16.6801 13.997L19.1394 12.1845C19.2952 12.0697 19.4835 12.0078 19.677 12.0078H19.9375C20.1779 12.0078 20.4084 12.1033 20.5783 12.2732C20.7483 12.4432 20.8438 12.6737 20.8438 12.914V22.4297Z" fill="#6B6B6B"/>
</svg>
