<svg width="149" height="149" viewBox="0 0 149 149" fill="none" xmlns="http://www.w3.org/2000/svg">
<circle cx="74.5" cy="74.5" r="74.5" fill="#D6D6D6"/>
<path fill-rule="evenodd" clip-rule="evenodd" d="M75 46C69.391 46.0176 63.9733 48.0406 59.7255 51.7035C56.47 54.5085 54.1112 58.1635 53.5035 61.8312C46.3805 63.4037 41 69.6087 41 77.1015C41 85.8055 48.259 92.75 57.0693 92.75H72.875V70.2547L63.7545 79.3795C63.3555 79.7785 62.8143 80.0027 62.25 80.0027C61.6857 80.0027 61.1445 79.7785 60.7455 79.3795C60.3465 78.9805 60.1223 78.4393 60.1223 77.875C60.1223 77.3107 60.3465 76.7695 60.7455 76.3705L73.4955 63.6205C73.6929 63.4226 73.9274 63.2656 74.1856 63.1585C74.4437 63.0513 74.7205 62.9962 75 62.9962C75.2795 62.9962 75.5563 63.0513 75.8144 63.1585C76.0726 63.2656 76.3071 63.4226 76.5045 63.6205L89.2545 76.3705C89.6535 76.7695 89.8777 77.3107 89.8777 77.875C89.8777 78.4393 89.6535 78.9805 89.2545 79.3795C88.8555 79.7785 88.3143 80.0027 87.75 80.0027C87.1857 80.0027 86.6445 79.7785 86.2455 79.3795L77.125 70.2547V92.75H94.924C102.633 92.75 109 86.6725 109 79.0352C109 72.0822 103.722 66.417 96.9555 65.4608C95.9228 54.4958 86.4325 46 75 46ZM72.875 107.625V92.75H77.125V107.625C77.125 108.189 76.9011 108.729 76.5026 109.128C76.1041 109.526 75.5636 109.75 75 109.75C74.4364 109.75 73.8959 109.526 73.4974 109.128C73.0989 108.729 72.875 108.189 72.875 107.625Z" fill="#A4A4A4"/>
</svg>
